# xmcd CD database file
#
# Track frame offsets:
#	150
#	15035
#	26250
#	34207
#	44005
#	57232
#	61815
#	66665
#	77257
#	84880
#	94677
#	108352
#
# Disc length: 1578 seconds
#
# Revision: 0
# Processed by: cddbd v1.5PL3 Copyright (c) Steve Scherf et al.
# Submitted via: CDex 1.50
#
DISCID=8606280c
DTITLE=S☆Creaters  - Choose Right Way
DYEAR=1900
DGENRE=Rock
TTITLE0=Choose left way
TTITLE1=Stand the proof
TTITLE2=holiday in the park
TTITLE3=The blood of prime minister
TTITLE4=contradiction
TTITLE5=summer camp
TTITLE6=Fight with real swords
TTITLE7=Children standind on the hill
TTITLE8=An offensive song
TTITLE9=Perfect gigoro
TTITLE10=Gray rord I came
TTITLE11=real vision
EXTD=
EXTT0=
EXTT1=
EXTT2=
EXTT3=
EXTT4=
EXTT5=
EXTT6=
EXTT7=
EXTT8=
EXTT9=
EXTT10=
EXTT11=
PLAYORDER=
